<?xml version="1.0" standalone="no"?><!DOCTYPE svg PUBLIC "-//W3C//DTD SVG 1.1//EN" "http://www.w3.org/Graphics/SVG/1.1/DTD/svg11.dtd"><svg t="1727349657473" class="icon" viewBox="0 0 1024 1024" version="1.1" xmlns="http://www.w3.org/2000/svg" p-id="2396" xmlns:xlink="http://www.w3.org/1999/xlink" width="26" height="26"><path d="M832 96c53.02 0 96 42.98 96 96v640c0 53.02-42.98 96-96 96H192c-53.02 0-96-42.98-96-96V192c0-53.02 42.98-96 96-96zM512 266.667c-17.673 0-32 14.327-32 32V352H298.667l-0.53 0.004c-17.429 0.283-31.47 14.5-31.47 31.996v213.333l0.004 0.53c0.283 17.429 14.5 31.47 31.996 31.47H480v117.334l0.004 0.529c0.283 17.429 14.5 31.47 31.996 31.47 17.673 0 32-14.326 32-32V629.334h181.333l0.53-0.004c17.429-0.283 31.47-14.5 31.47-31.996V384l-0.004-0.53c-0.283-17.428-14.5-31.47-31.996-31.47H544v-53.333l-0.004-0.53c-0.283-17.429-14.5-31.47-31.996-31.47zM480 416v149.333H330.666V416H480z m64 0h149.333v149.333H544V416z" p-id="2397" fill="#000000"></path></svg>