<?xml version="1.0" standalone="no"?><!DOCTYPE svg PUBLIC "-//W3C//DTD SVG 1.1//EN" "http://www.w3.org/Graphics/SVG/1.1/DTD/svg11.dtd"><svg t="1727349941656" class="icon" viewBox="0 0 1024 1024" version="1.1" xmlns="http://www.w3.org/2000/svg" p-id="1658" xmlns:xlink="http://www.w3.org/1999/xlink" width="26" height="26"><path d="M832 96c53.02 0 96 42.98 96 96v640c0 53.02-42.98 96-96 96H192c-53.02 0-96-42.98-96-96V192c0-53.02 42.98-96 96-96zM448 330.667H277.333l-0.529 0.004c-17.429 0.283-31.47 14.5-31.47 31.996v298.666a32.49 32.49 0 0 0 0.104 2.604l0.001 0.02c0.02 0.25 0.044 0.497 0.07 0.743l0.028 0.26 0.003 0.032a32.023 32.023 0 0 0 0.205 1.486l0.007 0.046a31.883 31.883 0 0 0 1.588 5.989 31.785 31.785 0 0 0 3.678 7.033 32.084 32.084 0 0 0 5.747 6.303 32.145 32.145 0 0 0 2.914 2.178 32.068 32.068 0 0 0 5.702 3 31.788 31.788 0 0 0 10.63 2.28c0.438 0.017 0.88 0.026 1.322 0.026h160l0.53-0.004c17.429-0.283 31.47-14.5 31.47-31.996 0-17.673-14.327-32-32-32h-128V544h128l0.53-0.004c17.429-0.283 31.47-14.5 31.47-31.996 0-17.673-14.327-32-32-32h-128v-85.334H448l0.53-0.004c17.428-0.282 31.47-14.499 31.47-31.995 0-17.673-14.327-32-32-32z m106.667 42.666c-17.673 0-32 14.327-32 32v256l0.004 0.53c0.283 17.429 14.5 31.47 31.996 31.47l0.529-0.004c17.429-0.283 31.47-14.5 31.47-31.996V522.667l0.01-1.059c0.564-34.858 28.998-62.941 63.99-62.941 35.347 0 64 28.653 64 64v138.666l0.005 0.53c0.283 17.429 14.5 31.47 31.996 31.47 17.673 0 32-14.327 32-32V522.667l-0.017-2.117c-1.13-69.717-57.997-125.883-127.983-125.883-23.315 0-45.174 6.233-64 17.124v-6.458l-0.005-0.529c-0.282-17.429-14.499-31.47-31.995-31.47z" p-id="1659" fill="#26316e"></path></svg>