<?xml version="1.0" standalone="no"?>
<!DOCTYPE svg PUBLIC "-//W3C//DTD SVG 20010904//EN"
 "http://www.w3.org/TR/2001/REC-SVG-20010904/DTD/svg10.dtd">
<svg version="1.0" xmlns="http://www.w3.org/2000/svg"
 width="1080.000000pt" height="1080.000000pt" viewBox="0 0 1080.000000 1080.000000"
 preserveAspectRatio="xMidYMid meet">

<g transform="translate(0.000000,1080.000000) scale(0.100000,-0.100000)"
fill="#000000" stroke="none">
<path d="M4615 6233 c-163 -36 -302 -90 -338 -130 -27 -31 -37 -124 -37 -374
0 -247 14 -368 52 -442 24 -49 34 -57 69 -57 57 0 79 56 88 223 l6 128 65 26
c134 54 210 120 210 186 0 81 -100 89 -262 22 -16 -6 -18 -1 -18 48 l0 56 84
40 c150 70 221 132 233 204 8 51 -22 77 -84 76 -27 -1 -57 -3 -68 -6z"/>
<path d="M5501 6175 c-67 -57 -106 -235 -105 -485 2 -347 70 -537 172 -479 54
30 55 40 57 469 1 217 -3 415 -7 440 -16 81 -60 102 -117 55z"/>
<path d="M5818 6184 c-46 -24 -50 -96 -7 -109 57 -18 129 24 129 75 0 48 -64
66 -122 34z"/>
<path d="M4965 6001 c-74 -34 -140 -121 -181 -241 -28 -82 -26 -245 5 -323 50
-126 150 -207 255 -207 103 0 236 91 272 187 16 41 16 48 3 72 -24 43 -74 41
-155 -8 -77 -46 -118 -52 -158 -20 -34 27 -35 59 -1 59 44 0 132 40 178 81 62
54 99 131 99 207 0 62 -23 122 -59 154 -61 55 -182 74 -258 39z m146 -188 c19
-49 -28 -98 -113 -117 -24 -5 -28 -3 -28 14 0 93 113 175 141 103z"/>
<path d="M5806 5955 c-42 -45 -58 -124 -63 -315 -9 -295 27 -427 110 -406 71
17 97 127 99 410 1 211 -8 273 -48 317 -24 27 -70 24 -98 -6z"/>
<path d="M6489 5942 c-43 -28 -95 -84 -157 -170 l-30 -43 -37 69 c-48 91 -108
152 -150 152 -17 0 -39 -6 -49 -13 -37 -27 -16 -130 54 -274 l38 -76 -35 -54
c-47 -74 -113 -212 -113 -238 0 -33 28 -65 57 -65 33 0 106 54 166 124 l49 57
76 -79 c46 -47 89 -82 106 -86 33 -8 71 13 81 44 9 30 -19 106 -70 189 -25 40
-45 77 -45 83 0 6 29 58 64 117 88 147 106 185 106 225 0 37 -21 66 -49 66 -9
0 -37 -13 -62 -28z"/>
</g>
</svg>
